<?xml version="1.0" standalone="no"?>
<!DOCTYPE svg PUBLIC "-//W3C//DTD SVG 20010904//EN"
  "http://www.w3.org/TR/2001/REC-SVG-20010904/DTD/svg10.dtd">
<svg width="32" height="32">
  <path d="M15.3125,0.03125Q14.9844,-0.109375 14.7812,-0.515625Q14.625,-0.890625 14.4531,-1.25Q14.2031,-1.8125 14.1562,-1.92188Q14.0156,-2.26562 14,-2.60938Q13.9688,-2.98438 14.0938,-3.40625Q14.3125,-4.125 14.3125,-4.125L12.8125,-4.125Q12.9375,-4.64062 13.375,-4.82812Q13.4844,-4.875 13.8438,-4.875Q14.2031,-4.875 14.3281,-4.9375Q14.5625,-5.04688 14.5781,-5.375Q14.5781,-5.42188 14.5469,-5.8125Q14.5312,-6.20312 14.5312,-6.46875Q14.5312,-7 14.6406,-7Q15.5469,-7 15.9375,-7Q16.0156,-6.71875 16.0156,-6.40625Q16.0156,-6.20312 15.9688,-5.79688Q15.9219,-5.39062 15.9219,-5.17188Q15.9219,-5 15.9375,-4.82812Q16.1562,-4.84375 16.625,-4.875L19.5,-4.875Q17.9844,-4.125 16.625,-4.125Q15.625,-4.125 15.625,-3.54688Q15.625,-3.39062 15.7031,-3.17188Q15.8125,-2.89062 15.8281,-2.8125Q15.9062,-2.51562 15.9531,-2.0625Q16.0156,-1.40625 16.0312,-1.28125Q16.0625,-1.125 16.1875,-0.828125Q16.3281,-0.546875 16.3281,-0.34375Q16.3281,0 15.0781,0L15.3125,0.03125"/>
</svg>
